<svg width="17" height="17" viewBox="0 0 17 17" fill="none" xmlns="http://www.w3.org/2000/svg">
<path d="M16.9998 6.24219C16.9997 6.23081 16.9987 6.21969 16.9971 6.2087C16.9969 6.20701 16.9969 6.20532 16.9966 6.20362C16.9964 6.20223 16.996 6.2009 16.9958 6.19951C16.9936 6.18716 16.9908 6.17508 16.987 6.16333L16.9869 6.16263C16.9867 6.16204 16.9863 6.16151 16.9861 6.16088C16.9823 6.14933 16.9776 6.13821 16.9723 6.12742C16.9717 6.12616 16.9713 6.12483 16.9706 6.12364C16.9702 6.12287 16.9698 6.12214 16.9694 6.12138C16.9638 6.11079 16.9576 6.10064 16.9507 6.09095C16.9499 6.08995 16.9494 6.08885 16.9487 6.08783C16.9476 6.08636 16.9463 6.08507 16.9453 6.08364C16.9383 6.07448 16.931 6.06566 16.9229 6.05746C16.9224 6.05699 16.9221 6.05649 16.9216 6.05606C16.9215 6.0559 16.9213 6.05573 16.9211 6.05557C16.9208 6.05523 16.9204 6.05497 16.9201 6.05464C16.9116 6.04617 16.9023 6.03844 16.8926 6.03114C16.8914 6.03028 16.8904 6.02921 16.8893 6.02838L16.8893 6.02835L14.912 4.59281C14.7921 4.50575 14.6244 4.5323 14.5372 4.65232C14.4502 4.77223 14.4769 4.94 14.5968 5.02706L15.9054 5.97717H10.9464L4.62214 3.94157C4.60455 3.93592 4.58676 3.93217 4.56901 3.93021C4.44501 3.91661 4.32424 3.99135 4.28447 4.11478L3.68501 5.97721H1.10154L8.50348 0.603341L13.9253 4.53961C14.0451 4.62656 14.2129 4.60008 14.3 4.4801C14.3871 4.36018 14.3605 4.19241 14.2405 4.10532L8.6611 0.0546209C8.5671 -0.0136497 8.43979 -0.0136497 8.3458 0.0546209L0.117645 6.02842L0.117611 6.02845C0.116483 6.02928 0.115487 6.03034 0.114359 6.0312C0.104701 6.03847 0.0954078 6.04621 0.0867785 6.0547C0.0864466 6.05503 0.0861147 6.0553 0.0857828 6.05563C0.0856169 6.0558 0.0854509 6.05596 0.085285 6.05613C0.0848535 6.05656 0.0844885 6.05703 0.0840902 6.05746C0.075992 6.06569 0.0686239 6.07452 0.0616541 6.08371C0.0605921 6.08514 0.0593309 6.08643 0.058302 6.08786C0.0575719 6.08885 0.0569744 6.08995 0.0562775 6.09098C0.0494073 6.10067 0.0431345 6.11083 0.0375918 6.12141C0.0371936 6.12218 0.0367289 6.12291 0.0363306 6.12367C0.0357 6.12493 0.0352686 6.12623 0.034638 6.12745C0.0293609 6.13821 0.024648 6.14936 0.0208312 6.16088C0.020632 6.16147 0.0203001 6.162 0.0200678 6.16263C0.0200014 6.16283 0.0200014 6.1631 0.0199019 6.16333C0.0161515 6.17501 0.0133304 6.18713 0.0112063 6.19947C0.0109407 6.20087 0.0105093 6.20223 0.0103101 6.20362C0.0100446 6.20532 0.0100114 6.20698 0.0098123 6.2087C0.00831877 6.21969 0.00732309 6.23081 0.00715714 6.24219C0.00715714 6.24315 0.00702439 6.24408 0.00702439 6.24504L0.00695801 6.24551V6.24631C0.00695801 6.24647 0.00695801 6.24664 0.00695801 6.2468V16.7281C0.00695801 16.7296 0.00712395 16.731 0.00715714 16.7325C0.00722352 16.7374 0.00755542 16.7422 0.0079205 16.7471C0.00821921 16.7512 0.00845153 16.7552 0.00891618 16.7593C0.00944721 16.7638 0.0102438 16.7683 0.0110071 16.7728C0.0117373 16.777 0.0123679 16.7813 0.013264 16.7854C0.0141933 16.7897 0.0153881 16.7938 0.0164834 16.7979C0.0176118 16.8022 0.0187402 16.8066 0.020101 16.8108C0.0213954 16.8148 0.0229553 16.8187 0.0244156 16.8226C0.0260419 16.8269 0.0275686 16.8312 0.0293609 16.8353C0.0310203 16.8391 0.0329121 16.8427 0.0347375 16.8464C0.0368285 16.8506 0.0388198 16.8548 0.0410767 16.8589C0.0430017 16.8623 0.045159 16.8657 0.0472168 16.869C0.0498055 16.8732 0.0523611 16.8773 0.055149 16.8814C0.0573063 16.8844 0.0596628 16.8874 0.0619528 16.8904C0.0650727 16.8946 0.0682256 16.8986 0.0715778 16.9025C0.0724739 16.9036 0.0732372 16.9047 0.0741002 16.9057C0.0755937 16.9074 0.0772864 16.9088 0.0787799 16.9105C0.0827294 16.9147 0.0867121 16.9188 0.090894 16.9228C0.0937151 16.9255 0.0965362 16.928 0.0994569 16.9306C0.10344 16.934 0.107555 16.9373 0.111704 16.9406C0.11489 16.943 0.118076 16.9455 0.121362 16.9478C0.125577 16.9508 0.129958 16.9535 0.134372 16.9562C0.137691 16.9583 0.140977 16.9604 0.144395 16.9623C0.149307 16.9651 0.154352 16.9675 0.15943 16.9699C0.162484 16.9714 0.165437 16.973 0.168557 16.9744C0.174664 16.977 0.181003 16.9793 0.187342 16.9815C0.189533 16.9823 0.191624 16.9832 0.193814 16.9839C0.201946 16.9865 0.21021 16.9886 0.218607 16.9904C0.219105 16.9905 0.219603 16.9907 0.220134 16.9908C0.237956 16.9944 0.256376 16.9964 0.275261 16.9964H16.7316C16.7505 16.9964 16.769 16.9944 16.7868 16.9907C16.7873 16.9906 16.7878 16.9904 16.7883 16.9903C16.7967 16.9885 16.805 16.9863 16.8131 16.9837C16.8153 16.983 16.8174 16.9821 16.8195 16.9814C16.8259 16.9792 16.8322 16.9769 16.8384 16.9742C16.8415 16.9729 16.8444 16.9713 16.8475 16.9698C16.8525 16.9674 16.8576 16.965 16.8625 16.9622C16.8659 16.9603 16.8692 16.9582 16.8725 16.9561C16.8769 16.9534 16.8813 16.9507 16.8855 16.9477C16.8888 16.9454 16.892 16.943 16.8952 16.9405C16.8994 16.9372 16.9035 16.934 16.9074 16.9305C16.9103 16.9279 16.9132 16.9254 16.916 16.9227C16.9202 16.9187 16.9242 16.9146 16.9281 16.9104C16.9296 16.9087 16.9313 16.9073 16.9328 16.9056C16.9337 16.9046 16.9345 16.9035 16.9353 16.9024C16.9387 16.8985 16.9419 16.8945 16.945 16.8903C16.9473 16.8873 16.9496 16.8843 16.9518 16.8813C16.9546 16.8772 16.9572 16.8731 16.9597 16.8689C16.9618 16.8656 16.964 16.8622 16.9658 16.8588C16.9681 16.8547 16.9701 16.8505 16.9722 16.8463C16.974 16.8426 16.9759 16.839 16.9776 16.8353C16.9794 16.8311 16.9809 16.8268 16.9825 16.8225C16.984 16.8186 16.9856 16.8147 16.9868 16.8108C16.9882 16.8065 16.9893 16.8022 16.9904 16.7979C16.9915 16.7937 16.9927 16.7896 16.9937 16.7854C16.9946 16.7812 16.9952 16.777 16.9959 16.7727C16.9967 16.7682 16.9974 16.7637 16.998 16.7592C16.9985 16.7552 16.9987 16.7511 16.999 16.747C16.9993 16.7421 16.9996 16.7373 16.9997 16.7324C16.9998 16.731 16.9999 16.7295 16.9999 16.7281V6.2468C17 6.24664 17 6.24647 17 6.24631V6.24551V6.24504C16.9999 6.24408 16.9998 6.24315 16.9998 6.24219ZM15.9054 6.51381L14.8942 7.24789L12.6135 6.51381H15.9054ZM4.13592 6.32772L4.71308 4.53463L10.822 6.50093L14.3562 7.63853L13.1259 8.5317L7.93989 6.86237C7.79887 6.81716 7.64769 6.89449 7.60225 7.03558C7.55685 7.1766 7.63438 7.32778 7.77547 7.37322L12.588 8.92227L11.9305 9.3996L5.72645 7.40269C5.58547 7.35742 5.43426 7.43482 5.38882 7.57591C5.34342 7.71693 5.42095 7.86811 5.56203 7.91354L11.3925 9.7902L10.735 10.2675L9.92813 10.0078C9.78715 9.96242 9.63593 10.0399 9.5905 10.181C9.54513 10.322 9.62263 10.4732 9.76371 10.5186L10.197 10.6581L8.50348 11.8875L3.51259 8.26425L4.13592 6.32772ZM3.51226 6.51381L3.05564 7.93249L1.10154 6.51381H3.51226ZM0.543564 6.77186L6.36482 10.9981L0.543564 16.1336V6.77186ZM0.985017 16.4598L6.80986 11.3212L8.3459 12.4363C8.34702 12.4372 8.34829 12.4377 8.34945 12.4385C8.35987 12.4458 8.37056 12.4526 8.38174 12.4582C8.38207 12.4584 8.38234 12.4586 8.38264 12.4588C8.38277 12.4588 8.3829 12.4589 8.38303 12.459C8.39432 12.4646 8.406 12.4692 8.41788 12.4732C8.4217 12.4745 8.42558 12.4756 8.42947 12.4767C8.43783 12.4791 8.44629 12.4811 8.45482 12.4827C8.45891 12.4834 8.46292 12.4842 8.467 12.4848C8.47862 12.4864 8.4903 12.4874 8.50202 12.4875C8.50245 12.4875 8.50288 12.4876 8.50328 12.4876C8.50335 12.4876 8.50341 12.4875 8.50348 12.4875C8.50355 12.4875 8.50361 12.4876 8.50368 12.4876C8.50411 12.4876 8.50451 12.4875 8.50494 12.4875C8.51669 12.4874 8.52834 12.4864 8.53995 12.4848C8.54407 12.4842 8.54812 12.4834 8.5522 12.4826C8.56073 12.4811 8.56913 12.4791 8.57746 12.4767C8.58134 12.4756 8.58529 12.4745 8.58914 12.4732C8.60099 12.4692 8.61264 12.4646 8.62392 12.459C8.62406 12.4589 8.62422 12.4588 8.62435 12.4588C8.62472 12.4586 8.62502 12.4583 8.62538 12.4582C8.6365 12.4525 8.64716 12.4458 8.65754 12.4385C8.65867 12.4377 8.65997 12.4372 8.66113 12.4363L10.1971 11.3212L16.0219 16.4598H0.985017V16.4598ZM16.4633 16.1336L10.6421 10.9982L13.3297 9.04699C13.3298 9.04689 13.33 9.04673 13.3302 9.04663L16.4633 6.77189V16.1336V16.1336Z" fill="white"/>
</svg>
