<svg width="22" height="16" viewBox="0 0 22 16" fill="none" xmlns="http://www.w3.org/2000/svg">
<path d="M20.8718 0.666626H1.12823C0.507676 0.666626 0 1.1743 0 1.79481V14.2051C0 14.8256 0.507676 15.3333 1.12823 15.3333H20.8718C21.4923 15.3333 22 14.8256 22 14.2051V1.79481C22 1.1743 21.4923 0.666626 20.8718 0.666626ZM20.4484 1.51272L11.649 8.11281C11.4908 8.23321 11.2479 8.30853 11 8.30741C10.752 8.30853 10.5092 8.23321 10.351 8.11281L1.55156 1.51272H20.4484ZM15.748 8.5483L20.5429 14.4714C20.5477 14.4773 20.5536 14.4819 20.5587 14.4872H1.44126C1.44633 14.4816 1.45226 14.4773 1.45707 14.4714L6.25195 8.5483C6.39886 8.36667 6.37102 8.10039 6.18905 7.95314C6.00742 7.80623 5.74114 7.83407 5.59419 8.01574L0.846141 13.881V2.04158L9.84354 8.78965C10.1817 9.04154 10.5932 9.1524 10.9999 9.15351C11.4061 9.15265 11.8179 9.04179 12.1563 8.78965L21.1537 2.04158V13.8809L16.4058 8.01574C16.2588 7.83411 15.9923 7.80618 15.8109 7.95314C15.629 8.10005 15.6011 8.36667 15.748 8.5483Z" fill="black"/>
</svg>
