<svg width="17" height="17" viewBox="0 0 17 17" fill="none" xmlns="http://www.w3.org/2000/svg">
<path fill-rule="evenodd" clip-rule="evenodd" d="M16.8697 7.17719C16.7871 7.11416 16.6789 7.08978 16.5753 7.11079L11.2163 8.19495L10.6153 8.07342L12.2012 5.0697C12.2038 5.06477 12.2062 5.05984 12.2086 5.05492C12.4215 4.59669 12.5294 4.10915 12.5294 3.60565C12.5294 1.61749 10.819 0 8.71638 0C6.61379 0 4.90321 1.61749 4.90321 3.60565C4.90321 4.10915 5.01116 4.59669 5.22417 5.05492C5.22651 5.05984 5.22884 5.06477 5.23144 5.0697L6.36332 7.21312L5.85719 7.11079C5.85252 7.10975 5.84772 7.10936 5.84292 7.10871C5.83606 7.10754 5.82934 7.10638 5.82248 7.1056C5.81618 7.10495 5.81 7.10482 5.80383 7.10443C5.79697 7.10404 5.79025 7.10352 5.78353 7.10352C5.77708 7.10352 5.77077 7.10404 5.76433 7.1043C5.75774 7.10469 5.75116 7.10495 5.74471 7.1056C5.73799 7.10638 5.73141 7.10754 5.72482 7.10858C5.71989 7.10936 5.71509 7.10975 5.71015 7.11066L0.27762 8.20986C0.115767 8.24255 0 8.37795 0 8.5345V11.2731C0 11.4565 0.15719 11.6051 0.35114 11.6051C0.545091 11.6051 0.702281 11.4565 0.702281 11.2731V8.80298L5.43253 7.84605V15.3004L0.702281 16.2573V13.9294C0.702281 13.746 0.545091 13.5973 0.35114 13.5973C0.15719 13.5973 0 13.746 0 13.9294V16.668C0 16.7682 0.0478703 16.8632 0.130306 16.9261C0.193402 16.9743 0.271448 17 0.35114 17C0.375556 17 0.400245 16.9975 0.42466 16.9926L5.78367 15.9084L11.1428 16.9926C11.1447 16.993 11.1467 16.9933 11.1486 16.9935C11.1564 16.9949 11.1642 16.9961 11.172 16.997C11.1756 16.9974 11.179 16.9979 11.1826 16.9983C11.1937 16.9994 11.2049 17 11.2163 17C11.2276 17 11.2388 16.9994 11.2499 16.9983C11.2535 16.9979 11.2571 16.9974 11.2605 16.997C11.2683 16.9961 11.2761 16.9949 11.2838 16.9935C11.2857 16.9931 11.2878 16.993 11.2897 16.9926L16.7222 15.8935C16.8842 15.8607 17 15.7254 17 15.5689V12.8303C17 12.6469 16.8428 12.4983 16.6489 12.4983C16.4549 12.4983 16.2977 12.6469 16.2977 12.8303V15.3003L11.5675 16.2573V8.80298L16.2977 7.84605V10.174C16.2977 10.3574 16.4549 10.5061 16.6489 10.5061C16.8428 10.5061 17 10.3574 17 10.174V7.43542C17 7.33517 16.9521 7.24036 16.8697 7.17719V7.17719ZM5.60549 3.60565C5.60549 1.98363 7.001 0.664062 8.71638 0.664062C10.4318 0.664062 11.8273 1.98363 11.8273 3.60565C11.8273 4.01395 11.7403 4.40914 11.569 4.78047L8.71638 10.1831L5.86377 4.78047C5.69232 4.40914 5.60549 4.01395 5.60549 3.60565V3.60565ZM6.13481 7.84605L6.76467 7.97342L8.40227 11.0747C8.46166 11.1872 8.58333 11.2585 8.71638 11.2585C8.84943 11.2585 8.97109 11.1872 9.03062 11.0747L10.2913 8.6869L10.8652 8.80298V16.2573L6.13495 15.3003V7.84605H6.13481Z" fill="white"/>
</svg>
