<svg width="22" height="22" viewBox="0 0 22 22" fill="none" xmlns="http://www.w3.org/2000/svg">
<path d="M13.0166 1.83337H10.8166C10.5126 1.83337 10.2666 2.07941 10.2666 2.38337C10.2666 2.68733 10.5126 2.93337 10.8166 2.93337H13.0166C13.3206 2.93337 13.5666 2.68733 13.5666 2.38337C13.5666 2.07941 13.3206 1.83337 13.0166 1.83337Z" fill="black"/>
<path d="M15.3999 0H6.5999C5.38698 0 4.3999 0.987078 4.3999 2.2V19.8C4.3999 21.0129 5.38698 22 6.5999 22H15.3999C16.6128 22 17.5999 21.0129 17.5999 19.8V2.2C17.5999 0.987078 16.6128 0 15.3999 0ZM16.4999 19.8C16.4999 20.4076 16.0075 20.9 15.3999 20.9H6.5999C5.99232 20.9 5.4999 20.4076 5.4999 19.8V2.2C5.4999 1.59242 5.99232 1.1 6.5999 1.1H15.3999C16.0075 1.1 16.4999 1.59242 16.4999 2.2V19.8Z" fill="black"/>
<path d="M10.9999 20.1667C11.6074 20.1667 12.0999 19.6742 12.0999 19.0667C12.0999 18.4592 11.6074 17.9667 10.9999 17.9667C10.3924 17.9667 9.8999 18.4592 9.8999 19.0667C9.8999 19.6742 10.3924 20.1667 10.9999 20.1667Z" fill="black"/>
<path d="M8.98335 2.93337C9.28711 2.93337 9.53335 2.68713 9.53335 2.38337C9.53335 2.07962 9.28711 1.83337 8.98335 1.83337C8.67959 1.83337 8.43335 2.07962 8.43335 2.38337C8.43335 2.68713 8.67959 2.93337 8.98335 2.93337Z" fill="black"/>
</svg>
