<svg width="19" height="19" viewBox="0 0 19 19" fill="none" xmlns="http://www.w3.org/2000/svg">
<path d="M18.9983 17.9795L18.9887 17.829L18.8286 15.3123C18.7514 14.0976 17.9608 13.0509 16.8147 12.6458L13.049 11.315C12.8212 11.2345 12.5673 11.2425 12.3452 11.3359C12.3334 11.3408 12.3219 11.3462 12.3103 11.3516L11.4094 11.0735L11.4093 10.3257C12.3447 9.69805 13.067 8.55753 13.1089 7.50076H13.1354C13.5465 7.50076 13.8809 7.16633 13.8809 6.75527V6.05653C13.8809 5.96587 13.8638 5.87933 13.834 5.79888C14.0146 5.70162 14.1379 5.50898 14.1379 5.28744V4.89727C14.1379 4.61434 13.9369 4.37822 13.6722 4.32819V4.2172C13.6722 4.18447 13.6718 4.15188 13.6711 4.11934C13.6623 3.77333 13.6055 3.43207 13.5024 3.10514C13.4562 2.95852 13.2997 2.87699 13.1532 2.92345C13.0066 2.96969 12.9253 3.12599 12.9715 3.27257C13.059 3.54989 13.1071 3.83953 13.1146 4.13344C13.1153 4.16124 13.1156 4.18918 13.1156 4.2172V4.59679C13.1156 4.75054 13.2402 4.87511 13.3939 4.87511H13.5677C13.5723 4.87511 13.5813 4.88294 13.5813 4.8973V5.28747C13.5813 5.30187 13.5723 5.3097 13.5677 5.3097H5.43233C5.4277 5.3097 5.41872 5.30187 5.41872 5.28747V4.8973C5.41872 4.88294 5.4277 4.87511 5.43233 4.87511H5.60604C5.75979 4.87511 5.88437 4.75054 5.88437 4.59679V4.2172C5.88437 4.18918 5.88474 4.16124 5.88544 4.13348C5.9227 2.66479 7.00329 1.42215 8.40147 1.17336V2.19725V2.19777C8.40147 2.4519 8.50363 2.6825 8.66888 2.85105C8.67103 2.85324 8.67307 2.85554 8.67522 2.85773C8.67749 2.85999 8.6799 2.86214 8.6822 2.86437C8.85064 3.02951 9.08102 3.1316 9.33485 3.1316H9.33537H9.66494H9.66545C9.91928 3.1316 10.1497 3.02951 10.3181 2.86437C10.3204 2.86211 10.3228 2.85999 10.3251 2.85773C10.3273 2.85554 10.3293 2.85324 10.3314 2.85105C10.4967 2.6825 10.5988 2.4519 10.5988 2.19777V2.19725V1.1731C11.352 1.30603 12.0336 1.72641 12.5031 2.35693C12.595 2.48017 12.7693 2.50567 12.8926 2.41393C13.0159 2.32213 13.0414 2.14775 12.9496 2.02447C12.3538 1.22439 11.4676 0.710607 10.4968 0.595864C10.3421 0.29331 10.0274 0.0855713 9.66494 0.0855713H9.33537C8.97281 0.0855713 8.65808 0.293348 8.50341 0.595976C7.6831 0.692794 6.92017 1.07443 6.33899 1.68284C5.71084 2.34042 5.35214 3.2057 5.32895 4.11934C5.32817 4.15185 5.32772 4.18443 5.32772 4.21716V4.32816C5.06306 4.37822 4.86207 4.61434 4.86207 4.89723V5.2874C4.86207 5.50894 4.98542 5.70158 5.16596 5.79884C5.1362 5.8793 5.11909 5.96584 5.11909 6.05649V6.75523C5.11909 7.16629 5.45352 7.50072 5.86459 7.50072H5.89086C5.92979 8.55834 6.65361 9.70391 7.59059 10.3331L7.59048 11.0734L6.68942 11.3514C6.45923 11.2437 6.19074 11.2302 5.95101 11.315L2.18529 12.6459C1.03909 13.0509 0.248579 14.0976 0.171355 15.3123L0.151427 15.6258C0.141667 15.7792 0.258154 15.9114 0.411564 15.9212C0.564678 15.9302 0.697196 15.8144 0.706993 15.6611L0.726921 15.3476C0.789933 14.3558 1.43519 13.5013 2.37076 13.1707L3.33379 12.8304V18.3578H0.878142C0.799767 18.3578 0.72629 18.3302 0.668028 18.2795C0.659716 18.2722 0.6517 18.2645 0.644018 18.2563C0.590098 18.1988 0.559743 18.126 0.556848 18.0483C0.55644 18.0372 0.556588 18.0261 0.557294 18.0148L0.635261 16.7888C0.64502 16.6354 0.528534 16.5032 0.375123 16.4934C0.221267 16.4839 0.0894538 16.6001 0.079694 16.7535L0.00176401 17.9795V17.9795C0.000799165 17.9946 0.000242522 18.0097 5.69749e-05 18.0248C-0.00235514 18.2357 0.071901 18.4424 0.208019 18.6034C0.217741 18.615 0.227798 18.6262 0.238115 18.6373C0.258785 18.6593 0.280494 18.6801 0.303168 18.6997C0.461848 18.8371 0.666841 18.9144 0.878068 18.9144H0.878105H3.61207H15.3879H18.1219C18.1671 18.9144 18.2121 18.9109 18.2564 18.904C18.4484 18.8739 18.6276 18.7804 18.7619 18.6373C18.9171 18.4719 19.0025 18.2509 18.9999 18.0248C18.9998 18.0097 18.9992 17.9946 18.9983 17.9795ZM13.1116 5.86768H13.1355C13.2396 5.86768 13.3243 5.95236 13.3243 6.05649V6.75523C13.3243 6.85936 13.2396 6.94408 13.1355 6.94408H13.1116V5.86768ZM8.95811 1.01995C8.95811 0.989634 8.96219 0.95887 8.97065 0.925916C8.97106 0.924247 8.97125 0.922539 8.97162 0.920907C9.01511 0.760594 9.16147 0.642214 9.33537 0.642214H9.66494C9.83879 0.642214 9.98519 0.760594 10.0287 0.92087C10.0291 0.92254 10.0292 0.924247 10.0296 0.925879C10.0381 0.958833 10.0422 0.989596 10.0422 1.01991V2.19721C10.0422 2.3012 10.0001 2.39549 9.93201 2.46385C9.9319 2.46396 9.93183 2.46407 9.93172 2.46418C9.9283 2.46759 9.92455 2.47067 9.92099 2.47394C9.85364 2.5364 9.76379 2.57492 9.66494 2.57492H9.33537C9.23647 2.57492 9.14666 2.5364 9.07931 2.47394C9.07578 2.47064 9.072 2.46759 9.06858 2.46418C9.06847 2.46407 9.0684 2.46396 9.06829 2.46385C9.00027 2.39549 8.95811 2.3012 8.95811 2.19721V1.01995ZM5.88845 6.94408H5.86459C5.76049 6.94408 5.67574 6.85936 5.67574 6.75523V6.05649C5.67574 5.95236 5.76046 5.86768 5.86459 5.86768H5.88845V6.94408ZM12.453 11.9004L12.5426 11.8573C12.5463 11.8556 12.5501 11.8543 12.5538 11.8526C12.6507 11.8095 12.7634 11.8045 12.8635 11.8398L13.5554 12.0844L11.5091 13.6459C11.4318 13.7048 11.3397 13.736 11.2426 13.736C11.1568 13.736 11.0736 13.7111 11.0019 13.6641L10.0645 13.0493L12.453 11.9004ZM6.44509 7.41166V7.2224V5.86764H12.5549V7.2224V7.40431C12.5549 8.363 11.7834 9.49844 10.8786 9.99612C10.8766 9.99723 10.8746 9.9983 10.8726 9.99938C10.8433 10.0154 10.8138 10.0306 10.7843 10.0452C10.7794 10.0476 10.7745 10.0501 10.7696 10.0525C10.7067 10.0832 10.6433 10.1105 10.5796 10.1346C10.571 10.1378 10.5625 10.1408 10.5539 10.1439C10.5306 10.1523 10.5071 10.1603 10.4837 10.1679C10.4746 10.1708 10.4656 10.1737 10.4566 10.1765C10.4255 10.1859 10.3945 10.1948 10.3634 10.2026L10.327 10.2116C10.1487 10.2559 9.99647 10.2909 9.85935 10.3148C9.72223 10.3388 9.60022 10.3516 9.48243 10.3516C9.27514 10.3516 9.06231 10.3133 8.76722 10.242C8.7654 10.2416 8.76369 10.2412 8.76184 10.2407C8.75605 10.2393 8.75 10.2378 8.74414 10.2364C8.70688 10.2273 8.66862 10.2178 8.62861 10.2078C8.59774 10.2 8.5669 10.191 8.53606 10.1815L8.50938 10.1729C8.50511 10.1715 8.50092 10.17 8.49665 10.1686C8.47776 10.1623 8.45891 10.1559 8.4401 10.149C8.43123 10.1459 8.42236 10.1427 8.4136 10.1394C8.41219 10.1388 8.41074 10.1382 8.40933 10.1377C8.34617 10.1135 8.28331 10.0862 8.22097 10.0555C8.21907 10.0545 8.21722 10.0536 8.21533 10.0526C7.27133 9.58487 6.44509 8.40215 6.44509 7.41166ZM6.13649 11.8398C6.24032 11.8032 6.35818 11.8096 6.45741 11.8573L8.93551 13.0492L7.99805 13.664C7.92628 13.7111 7.84304 13.7359 7.75739 13.7359C7.75736 13.7359 7.75736 13.7359 7.75736 13.7359C7.66028 13.7359 7.5681 13.7048 7.49087 13.6459L5.44451 12.0843L6.13649 11.8398ZM9.22162 18.3578H3.89043V12.6336L4.81743 12.306L7.15321 14.0884C7.32577 14.2201 7.54034 14.2926 7.75732 14.2926C7.75736 14.2926 7.75736 14.2926 7.75739 14.2926C7.95181 14.2926 8.14062 14.2362 8.30335 14.1295L9.22162 13.5273V18.3578ZM8.04317 12.0023L7.4276 11.7062L7.8076 11.589C8.0107 11.5264 8.14712 11.3414 8.14712 11.129L8.14719 10.6327C8.20501 10.6563 8.2632 10.6777 8.32172 10.697C8.32725 10.6989 8.33255 10.7008 8.33816 10.7026L8.34072 10.7035C8.35382 10.7077 8.36692 10.712 8.38002 10.7159C8.42091 10.7284 8.45776 10.7388 8.49265 10.7476C8.5875 10.7716 8.67597 10.793 8.75991 10.812C8.78455 10.8175 8.80889 10.8229 8.83279 10.828C8.83569 10.8287 8.83869 10.8293 8.84155 10.83C9.07708 10.8801 9.2771 10.9079 9.47857 10.9082C9.4798 10.9082 9.48106 10.9083 9.48228 10.9083C9.48232 10.9083 9.48236 10.9083 9.48239 10.9083C9.70175 10.9083 9.91854 10.876 10.1813 10.8181C10.2689 10.7987 10.3616 10.7766 10.4612 10.7518L10.4976 10.7427C10.535 10.7334 10.5724 10.7228 10.6099 10.7115C10.6218 10.708 10.6337 10.7042 10.6456 10.7005C10.6712 10.6924 10.6968 10.6838 10.7224 10.6747C10.7362 10.6699 10.75 10.6653 10.7637 10.6602C10.7934 10.6492 10.823 10.6376 10.8527 10.6254L10.8527 11.1289C10.8527 11.3414 10.9892 11.5263 11.1922 11.5889L11.5723 11.7062L9.49995 12.703L8.04317 12.0023ZM15.1096 18.3578H9.77827V13.5273L10.6966 14.1295C10.8593 14.2362 11.0481 14.2926 11.2426 14.2926C11.4596 14.2926 11.6742 14.2201 11.8467 14.0884L14.1825 12.306L15.1096 12.6336V18.3578ZM18.3964 18.2036C18.3849 18.2223 18.3714 18.2399 18.356 18.2564C18.2946 18.3218 18.2115 18.3578 18.1219 18.3578H15.6662V12.8304L16.6292 13.1707C16.717 13.2017 16.8021 13.2373 16.8845 13.2772C17.6807 13.6628 18.216 14.4488 18.2731 15.3476L18.4427 18.0149C18.4434 18.0261 18.4436 18.0373 18.4432 18.0484C18.4411 18.1038 18.425 18.1568 18.3964 18.2036Z" fill="black"/>
</svg>
